<mxfile host="app.diagrams.net" agent="Mozilla/5.0 (Windows NT 10.0; Win64; x64) AppleWebKit/537.36 (KHTML, like Gecko) Chrome/131.0.0.0 Safari/537.36 Edg/131.0.0.0" version="24.9.1">
  <diagram name="Page-1" id="EBvHX0YzznQ1LK8DR_Vl">
    <mxGraphModel dx="772" dy="378" grid="1" gridSize="10" guides="1" tooltips="1" connect="1" arrows="1" fold="1" page="1" pageScale="1" pageWidth="850" pageHeight="1100" math="0" shadow="0">
      <root>
        <mxCell id="0" />
        <mxCell id="1" parent="0" />
        <mxCell id="2aTLqgYgd1oR0lDy9rUG-3" value="" style="edgeStyle=orthogonalEdgeStyle;rounded=0;orthogonalLoop=1;jettySize=auto;html=1;" edge="1" parent="1" source="2aTLqgYgd1oR0lDy9rUG-1" target="2aTLqgYgd1oR0lDy9rUG-2">
          <mxGeometry relative="1" as="geometry" />
        </mxCell>
        <mxCell id="2aTLqgYgd1oR0lDy9rUG-1" value="Begin" style="ellipse;whiteSpace=wrap;html=1;" vertex="1" parent="1">
          <mxGeometry x="340" y="80" width="120" height="80" as="geometry" />
        </mxCell>
        <mxCell id="2aTLqgYgd1oR0lDy9rUG-5" value="" style="edgeStyle=orthogonalEdgeStyle;rounded=0;orthogonalLoop=1;jettySize=auto;html=1;" edge="1" parent="1" source="2aTLqgYgd1oR0lDy9rUG-2" target="2aTLqgYgd1oR0lDy9rUG-4">
          <mxGeometry relative="1" as="geometry" />
        </mxCell>
        <mxCell id="2aTLqgYgd1oR0lDy9rUG-2" value="Input: A, B" style="shape=parallelogram;perimeter=parallelogramPerimeter;whiteSpace=wrap;html=1;fixedSize=1;" vertex="1" parent="1">
          <mxGeometry x="340" y="250" width="120" height="60" as="geometry" />
        </mxCell>
        <mxCell id="2aTLqgYgd1oR0lDy9rUG-7" value="" style="edgeStyle=orthogonalEdgeStyle;rounded=0;orthogonalLoop=1;jettySize=auto;html=1;" edge="1" parent="1" source="2aTLqgYgd1oR0lDy9rUG-4" target="2aTLqgYgd1oR0lDy9rUG-6">
          <mxGeometry relative="1" as="geometry" />
        </mxCell>
        <mxCell id="2aTLqgYgd1oR0lDy9rUG-9" value="No" style="edgeLabel;html=1;align=center;verticalAlign=middle;resizable=0;points=[];" vertex="1" connectable="0" parent="2aTLqgYgd1oR0lDy9rUG-7">
          <mxGeometry y="-2" relative="1" as="geometry">
            <mxPoint as="offset" />
          </mxGeometry>
        </mxCell>
        <mxCell id="2aTLqgYgd1oR0lDy9rUG-18" value="Yes" style="edgeLabel;html=1;align=center;verticalAlign=middle;resizable=0;points=[];" vertex="1" connectable="0" parent="2aTLqgYgd1oR0lDy9rUG-7">
          <mxGeometry x="-0.0854" y="-2" relative="1" as="geometry">
            <mxPoint as="offset" />
          </mxGeometry>
        </mxCell>
        <mxCell id="2aTLqgYgd1oR0lDy9rUG-11" value="" style="edgeStyle=orthogonalEdgeStyle;rounded=0;orthogonalLoop=1;jettySize=auto;html=1;" edge="1" parent="1" source="2aTLqgYgd1oR0lDy9rUG-4" target="2aTLqgYgd1oR0lDy9rUG-10">
          <mxGeometry relative="1" as="geometry" />
        </mxCell>
        <mxCell id="2aTLqgYgd1oR0lDy9rUG-12" value="No" style="edgeLabel;html=1;align=center;verticalAlign=middle;resizable=0;points=[];" vertex="1" connectable="0" parent="2aTLqgYgd1oR0lDy9rUG-11">
          <mxGeometry x="-0.1238" y="1" relative="1" as="geometry">
            <mxPoint as="offset" />
          </mxGeometry>
        </mxCell>
        <mxCell id="2aTLqgYgd1oR0lDy9rUG-4" value="A != 0" style="rhombus;whiteSpace=wrap;html=1;" vertex="1" parent="1">
          <mxGeometry x="360" y="380" width="80" height="80" as="geometry" />
        </mxCell>
        <mxCell id="2aTLqgYgd1oR0lDy9rUG-6" value="X = - B / A" style="whiteSpace=wrap;html=1;" vertex="1" parent="1">
          <mxGeometry x="180" y="390" width="120" height="60" as="geometry" />
        </mxCell>
        <mxCell id="2aTLqgYgd1oR0lDy9rUG-10" value="Output: Няма решение" style="shape=parallelogram;perimeter=parallelogramPerimeter;whiteSpace=wrap;html=1;fixedSize=1;" vertex="1" parent="1">
          <mxGeometry x="500" y="390" width="120" height="60" as="geometry" />
        </mxCell>
        <mxCell id="2aTLqgYgd1oR0lDy9rUG-13" value="End" style="ellipse;whiteSpace=wrap;html=1;" vertex="1" parent="1">
          <mxGeometry x="340" y="530" width="120" height="80" as="geometry" />
        </mxCell>
        <mxCell id="2aTLqgYgd1oR0lDy9rUG-16" value="" style="endArrow=classic;html=1;rounded=0;exitX=0.5;exitY=1;exitDx=0;exitDy=0;entryX=0.941;entryY=0.229;entryDx=0;entryDy=0;entryPerimeter=0;" edge="1" parent="1" source="2aTLqgYgd1oR0lDy9rUG-10" target="2aTLqgYgd1oR0lDy9rUG-13">
          <mxGeometry width="50" height="50" relative="1" as="geometry">
            <mxPoint x="490" y="500" as="sourcePoint" />
            <mxPoint x="540" y="450" as="targetPoint" />
          </mxGeometry>
        </mxCell>
        <mxCell id="2aTLqgYgd1oR0lDy9rUG-17" value="" style="endArrow=classic;html=1;rounded=0;exitX=0.5;exitY=1;exitDx=0;exitDy=0;" edge="1" parent="1" source="2aTLqgYgd1oR0lDy9rUG-6" target="2aTLqgYgd1oR0lDy9rUG-13">
          <mxGeometry width="50" height="50" relative="1" as="geometry">
            <mxPoint x="570" y="460" as="sourcePoint" />
            <mxPoint x="463" y="558" as="targetPoint" />
          </mxGeometry>
        </mxCell>
      </root>
    </mxGraphModel>
  </diagram>
</mxfile>
